<?xml version="1.0" encoding="utf-8"?>
<!-- Generator: Adobe Illustrator 22.1.0, SVG Export Plug-In . SVG Version: 6.00 Build 0)  -->
<svg version="1.1" id="Layer_1" xmlns="http://www.w3.org/2000/svg" xmlns:xlink="http://www.w3.org/1999/xlink" x="0px" y="0px"
	 viewBox="0 0 264 108.2" style="enable-background:new 0 0 264 108.2;" xml:space="preserve">
<style type="text/css">
	.st0{fill:#24619D;}
	.st1{fill:#FF6C0E;}
</style>
<title>logo</title>
<g id="Layer_2_1_">
	<g id="Landing_Page">
		<path class="st0" d="M49.1,92.3c5.2,3.1,10.2,6.7,14.9,10.6h4.8C62.7,98.5,56.1,94.9,49.1,92.3"/>
		<path class="st0" d="M96.7,26.3c-0.2,3.4-0.4,8-0.4,16.1v30.3c0,10.4-2.1,19-8.3,24.4c-6.1,5.1-14.3,6.7-22.4,6.7
			c-7.2,0-14.8-1.4-19.8-4.2l3.4-12.8c4.9,2.7,10.4,4.1,16,4.1c8.1,0,14.3-4.3,14.3-14.3V73h-0.2c-3.3,4.5-8.5,7.1-14.8,7.1
			C50.7,80.1,41,69.3,41,53.6c0-17.4,11.5-28.5,25-28.5c7.5,0,12.3,3.2,15.1,7.7h0.2l0.6-6.4H96.7z M79.1,48.4c0-1-0.1-2.1-0.3-3.1
			c-1.2-4.4-4.5-7.4-9.2-7.4c-6.2,0-11.2,5.5-11.2,15.4c0,8.1,4,14.4,11.2,14.4c4.2,0,7.9-2.8,9-6.9c0.4-1.4,0.6-2.9,0.6-4.4
			L79.1,48.4z"/>
		<path class="st0" d="M110,44.2c0-8-0.2-13.2-0.5-17.9h14.7l0.6,10h0.4c2.8-7.9,9.6-11.2,14.8-11.2c1.2,0,2.4,0,3.6,0.2v15.9
			c-1.5-0.3-3.1-0.4-4.6-0.4c-6.3,0-10.6,3.3-11.7,8.5c-0.2,1.2-0.3,2.5-0.3,3.8v27.5H110V44.2z"/>
		<path class="st0" d="M182.7,80.6l-1-5.4h-0.3c-3.6,4.3-9.2,6.7-15.7,6.7c-11.1,0-17.8-8-17.8-16.6c0-14.1,12.8-20.9,32.3-20.7
			v-0.8c0-2.9-1.6-7-10-7c-5.3,0.1-10.5,1.5-15.2,4.1l-3.1-10.9c3.8-2.1,11.4-4.8,21.4-4.8c18.3,0,24.2,10.7,24.2,23.4v18.9
			c-0.1,4.4,0.2,8.8,0.8,13.2H182.7z M180.7,55c-9-0.1-16,2-16,8.5c0,4.3,2.9,6.4,6.7,6.4c4,0,7.6-2.5,8.9-6.2
			c0.2-0.9,0.3-1.9,0.3-2.9L180.7,55z"/>
		<path class="st0" d="M252.1,79.2c-3,1.3-8.8,2.4-15.3,2.4C219,81.7,207.6,71,207.6,54c0-15.9,11-28.8,31.5-28.8
			c4.4,0,8.8,0.7,13,2.1l-2.7,12.5c-3-1.2-6.3-1.8-9.6-1.7c-9,0-14.8,6.3-14.7,15.2c0,10,6.7,15.2,15.1,15.2
			c3.3,0.1,6.7-0.5,9.8-1.7L252.1,79.2z"/>
		<path class="st0" d="M21.4,32.5c-3.1,0-6.2-1-8.7-2.8v50.9h17.2V29.9C27.4,31.6,24.5,32.6,21.4,32.5"/>
		<path class="st0" d="M32.4,16.2c-0.1,6.1-5.1,11-11.2,11c-6-0.1-10.9-4.9-11-11c0.1-6.1,5.1-11,11.2-11
			C27.5,5.4,32.3,10.2,32.4,16.2"/>
		<path class="st1" d="M252.2,53.5c0.1,5.9-4.6,10.7-10.5,10.7c-5.9,0.1-10.7-4.6-10.7-10.5c-0.1-5.9,4.6-10.7,10.5-10.7
			c0,0,0.1,0,0.1,0C247.4,43,252.1,47.6,252.2,53.5"/>
	</g>
</g>
</svg>
